<svg xmlns="http://www.w3.org/2000/svg" viewBox="0 0 1200 630" fill="none">
  <rect width="1200" height="630" fill="url(#gradient2)"/>
  <defs>
    <linearGradient id="gradient2" x1="0%" y1="0%" x2="100%" y2="100%">
      <stop offset="0%" style="stop-color:#3B82F6;stop-opacity:1" />
      <stop offset="100%" style="stop-color:#1E40AF;stop-opacity:1" />
    </linearGradient>
  </defs>
  
  <!-- Group of people icons -->
  <g transform="translate(450, 200)">
    <!-- Person 1 -->
    <circle cx="50" cy="50" r="25" fill="white" opacity="0.9"/>
    <rect x="25" y="80" width="50" height="60" rx="5" fill="white" opacity="0.9"/>
    
    <!-- Person 2 -->
    <circle cx="150" cy="50" r="25" fill="white" opacity="0.85"/>
    <rect x="125" y="80" width="50" height="60" rx="5" fill="white" opacity="0.85"/>
    
    <!-- Person 3 -->
    <circle cx="250" cy="50" r="25" fill="white" opacity="0.8"/>
    <rect x="225" y="80" width="50" height="60" rx="5" fill="white" opacity="0.8"/>
  </g>
  
  <!-- Calendar icon -->
  <g transform="translate(520, 350)">
    <rect x="0" y="0" width="160" height="120" rx="8" fill="white" opacity="0.3"/>
    <rect x="0" y="0" width="160" height="30" rx="8" fill="white" opacity="0.5"/>
    <text x="80" y="70" text-anchor="middle" font-family="system-ui" font-size="36" font-weight="bold" fill="white">25</text>
    <text x="80" y="95" text-anchor="middle" font-family="system-ui" font-size="16" fill="white">JANUAR</text>
  </g>
  
  <!-- Decorative circles -->
  <circle cx="200" cy="200" r="60" fill="white" opacity="0.1"/>
  <circle cx="1000" cy="400" r="80" fill="white" opacity="0.1"/>
  <circle cx="100" cy="500" r="40" fill="white" opacity="0.15"/>
  <circle cx="1100" cy="150" r="50" fill="white" opacity="0.12"/>
  
  <!-- Text -->
  <text x="600" y="520" text-anchor="middle" font-family="system-ui, -apple-system, sans-serif" font-size="32" font-weight="bold" fill="white">Letno Srečanje Članov</text>
  <text x="600" y="560" text-anchor="middle" font-family="system-ui, -apple-system, sans-serif" font-size="20" fill="white" opacity="0.9">25. januar 2025 • Hotel Marina Koper</text>
</svg>